<svg xmlns="http://www.w3.org/2000/svg" width="129.637" height="63.007" viewBox="0 0 129.637 63.007">
  <g id="Group_7" data-name="Group 7" transform="translate(375.118 -833.466)">
    <g id="project" transform="translate(-305.1 789.058) rotate(45)">
      <path id="Path_693" data-name="Path 693" d="M208.215,342.043a6.5,6.5,0,0,1,5.479,2.991.175.175,0,0,0,.134.08h.013a.175.175,0,0,0,.132-.059,9.514,9.514,0,0,1,9.817-2.836l-3.136-8.039h-11.1l-3.171,8.127A6.486,6.486,0,0,1,208.215,342.043Z" transform="translate(-141.547 -275.451)" fill="#d9eafc"/>
      <g id="Group_3" data-name="Group 3" transform="translate(64.839 58.729)">
        <path id="Path_694" data-name="Path 694" d="M211,334.179h-1.447l-3.171,8.127a6.508,6.508,0,0,1,1.545-.253Z" transform="translate(-206.386 -334.179)" fill="#aec1ed"/>
      </g>
      <g id="Group_5" data-name="Group 5" transform="translate(68.892 58.729)">
        <path id="Path_702" data-name="Path 702" d="M266.066,334.179h-2.657l.339,2.682a1.318,1.318,0,1,0,2.615-.331Z" transform="translate(-257.44 -334.179)" fill="#aec1ed"/>
        <path id="Path_703" data-name="Path 703" d="M230.154,334.178l-.7,5.515a1.318,1.318,0,0,0,1.143,1.473,1.343,1.343,0,0,0,.167.011,1.319,1.319,0,0,0,1.306-1.153l.739-5.845h-2.657Z" transform="translate(-229.446 -334.178)" fill="#aec1ed"/>
      </g>
      <path id="Path_704" data-name="Path 704" d="M146.337,175.636q0-2.15.154-4.281c-4.228,2.381-7.141,7.686-7.141,13.827a17.708,17.708,0,0,0,2.332,8.945.778.778,0,0,0,.966.327,17.107,17.107,0,0,1,6.37-1.258A57.353,57.353,0,0,1,146.337,175.636Z" transform="translate(-86.292 -141.241)" fill="#e77470"/>
      <path id="Path_705" data-name="Path 705" d="M141.344,185.182a16.549,16.549,0,0,1,5.063-12.327c.024-.5.051-1,.086-1.5-4.228,2.381-7.141,7.686-7.141,13.827a17.708,17.708,0,0,0,2.332,8.945.778.778,0,0,0,.966.327c.33-.135.666-.255,1-.369A17.717,17.717,0,0,1,141.344,185.182Z" transform="translate(-86.292 -141.241)" fill="#ec7e79"/>
      <g id="Group_6" data-name="Group 6" transform="translate(66.829 30.114)">
        <path id="Path_706" data-name="Path 706" d="M320.166,171.355q.151,2.129.154,4.281a57.349,57.349,0,0,1-2.68,17.56,17.106,17.106,0,0,1,6.37,1.258.778.778,0,0,0,.966-.327,17.706,17.706,0,0,0,2.332-8.945C327.307,179.041,324.394,173.736,320.166,171.355Z" transform="translate(-300.078 -171.355)" fill="#e77470"/>
        <path id="Path_707" data-name="Path 707" d="M217.708,307.125v4.052a.881.881,0,0,0,.879.879h11.7a.881.881,0,0,0,.879-.879v-4.052Z" transform="translate(-217.708 -283.265)" fill="#e77470"/>
      </g>
      <path id="Path_708" data-name="Path 708" d="M220.7,311.177v-4.052h-2.989v4.052a.881.881,0,0,0,.879.879h2.989A.881.881,0,0,1,220.7,311.177Z" transform="translate(-150.879 -253.15)" fill="#e77470"/>
      <path id="Path_709" data-name="Path 709" d="M202.491,90.318H181.1a58.721,58.721,0,0,0,.253,37.767.778.778,0,0,0,.731.511h19.423a.778.778,0,0,0,.731-.511,58.721,58.721,0,0,0,.253-37.767Z" transform="translate(-118.238 -74.445)" fill="#eef6ff"/>
      <path id="Path_710" data-name="Path 710" d="M183.846,128.085a58.721,58.721,0,0,1-.253-37.767H181.1a58.721,58.721,0,0,0,.253,37.767.778.778,0,0,0,.731.511h2.491A.778.778,0,0,1,183.846,128.085Z" transform="translate(-118.239 -74.445)" fill="#d9eafc"/>
      <path id="Path_711" data-name="Path 711" d="M227.179,90.318v2.916a.881.881,0,0,0,.879.879h8.373a.881.881,0,0,0,.879-.879V90.318Z" transform="translate(-158.685 -74.445)" fill="#ec7e79"/>
      <path id="Path_712" data-name="Path 712" d="M229.172,93.234V90.318h-1.993v2.916a.881.881,0,0,0,.879.879h1.993A.881.881,0,0,1,229.172,93.234Z" transform="translate(-158.685 -74.445)" fill="#e77470"/>
      <path id="Path_713" data-name="Path 713" d="M205.554,0a.777.777,0,0,0-.489.173c-3.926,3.179-7.232,8-9.562,13.946-.248.632-.481,1.277-.7,1.929h21.511c-.223-.652-.456-1.3-.7-1.929-2.33-5.944-5.636-10.767-9.562-13.946A.776.776,0,0,0,205.554,0Z" transform="translate(-131.995)" fill="#e77470"/>
      <path id="Path_714" data-name="Path 714" d="M206.8.813q-.374-.33-.756-.64a.778.778,0,0,0-.979,0c-3.926,3.179-7.232,8-9.562,13.946-.248.632-.481,1.277-.7,1.929h2.491c.223-.652.456-1.3.7-1.929A34.322,34.322,0,0,1,206.8.813Z" transform="translate(-131.995)" fill="#e77470"/>
      <circle id="Ellipse_12" data-name="Ellipse 12" cx="8.966" cy="8.966" r="8.966" transform="translate(64.592 22.831)" fill="#445ea0"/>
      <circle id="Ellipse_13" data-name="Ellipse 13" cx="5.752" cy="5.752" r="5.752" transform="translate(67.806 26.045)" fill="#69cdff"/>
      <path id="Path_715" data-name="Path 715" d="M225.378,153.953a5.753,5.753,0,0,0,4.7,5.654,5.752,5.752,0,1,1,0-11.308A5.753,5.753,0,0,0,225.378,153.953Z" transform="translate(-155.463 -122.156)" fill="#52bbef"/>
    </g>
    <g id="logo" transform="translate(-647.888 293.393)">
      <path id="Path_116" data-name="Path 116" d="M389.032,556.8c5.215,0,9.432,4.51,9.432,10.068s-4.216,10.068-9.432,10.068H379.6V566.868C379.6,561.31,383.816,556.8,389.032,556.8Z" transform="translate(-86.916 -5.403)" fill="#f7a84e"/>
      <path id="Path_118" data-name="Path 118" d="M389.779,648.719a14.281,14.281,0,0,0,7.44-2.019c-.043,17.621-7.548,21.276-17.62,21.743V648.719Z" transform="translate(-86.792 -75.219)" fill="#e35793"/>
      <path id="Path_691" data-name="Path 691" d="M389.032,556.8c-5.216,0-9.432,4.51-9.432,10.068s4.216,10.068,9.432,10.068h9.432V566.868C398.464,561.311,394.248,556.8,389.032,556.8Z" transform="translate(-106.83 -5.403)" fill="#aadd69"/>
      <path id="Path_692" data-name="Path 692" d="M387.041,648.719A14.282,14.282,0,0,1,379.6,646.7c.043,17.621,7.548,21.276,17.62,21.743V648.719Z" transform="translate(-105.711 -75.219)" fill="#61c7ed"/>
    </g>
    <text id="_" data-name="+" transform="translate(-326 874)" fill="#e77470" font-size="20" font-family="Lato-Black, Lato" font-weight="800"><tspan x="0" y="0">+</tspan></text>
  </g>
</svg>
