<svg xmlns="http://www.w3.org/2000/svg" xmlns:xlink="http://www.w3.org/1999/xlink" width="842" height="603" viewBox="0 0 842 603">
  <defs>
    <filter id="Rectangle_829" x="321" y="125" width="496" height="195" filterUnits="userSpaceOnUse">
      <feOffset dy="3" input="SourceAlpha"/>
      <feGaussianBlur stdDeviation="3" result="blur"/>
      <feFlood flood-opacity="0.161"/>
      <feComposite operator="in" in2="blur"/>
      <feComposite in="SourceGraphic"/>
    </filter>
    <filter id="Rectangle_829-2" x="321" y="347" width="496" height="195" filterUnits="userSpaceOnUse">
      <feOffset dy="3" input="SourceAlpha"/>
      <feGaussianBlur stdDeviation="3" result="blur-2"/>
      <feFlood flood-opacity="0.161"/>
      <feComposite operator="in" in2="blur-2"/>
      <feComposite in="SourceGraphic"/>
    </filter>
    <clipPath id="clip-path">
      <rect id="human_mask_rect" width="156" height="187" rx="20" transform="translate(-5450 6903)" fill="#f3f4ff"/>
    </clipPath>
    <clipPath id="clip-path-2">
      <rect width="128" height="86" fill="none"/>
    </clipPath>
  </defs>
  <g id="Group_361" data-name="Group 361" transform="translate(5879 -6158)">
    <path id="Rectangle_827" data-name="Rectangle 827" d="M20,0H842a0,0,0,0,1,0,0V603a0,0,0,0,1,0,0H0a0,0,0,0,1,0,0V20A20,20,0,0,1,20,0Z" transform="translate(-5879 6158)" fill="#fff"/>
    <text id="Profiles" transform="translate(-5847 6221)" fill="#e77470" font-size="35" font-family="Lato-Bold, Lato" font-weight="700" letter-spacing="0.03em" opacity="0.858"><tspan x="0" y="0">Profiles</tspan></text>
    <text id="Questions" transform="translate(-5549 6258)" fill="#e77470" font-size="35" font-family="Lato-Bold, Lato" font-weight="700" letter-spacing="0.03em" opacity="0.858"><tspan x="0" y="0">Questions</tspan></text>
    <g id="Group_354" data-name="Group 354" transform="translate(-6317 6063)">
      <g transform="matrix(1, 0, 0, 1, 438, 95)" filter="url(#Rectangle_829)">
        <rect id="Rectangle_829-3" data-name="Rectangle 829" width="478" height="177" rx="15" transform="translate(330 131)" fill="#fff"/>
      </g>
      <text id="Where_is_the_best_on-campus_meal_at_Stanford_" data-name="Where is the best on-campus meal at Stanford?" transform="translate(788 263)" fill="#4a5568" font-size="20" font-family="Lato-Bold, Lato" font-weight="700" letter-spacing="0.02em"><tspan x="0" y="0">Where is the best on-campus meal at Stanford?</tspan></text>
      <text id="I_am_going_to_be_joining_Stanford_in_coming_Fall._Was_wondering_if_anyone_there_could_tell_me_what_to_expect_from_on-campus_food_places_" data-name="I am going to be joining Stanford in coming Fall. Was wondering if anyone there could tell me what to expect from on-campus food places?" transform="translate(788 282)" fill="#4a5568" font-size="16" font-family="Lato-Regular, Lato" letter-spacing="0.02em"><tspan x="0" y="16">I am going to be joining Stanford in coming Fall. Was </tspan><tspan x="0" y="40">wondering if anyone there could tell me what to expect </tspan><tspan x="0" y="64">from on-campus food places?</tspan></text>
      <line id="Line_94" data-name="Line 94" x2="437" transform="translate(788.5 365.5)" fill="none" stroke="#c5cfd6" stroke-width="0.5"/>
      <text id="_20_Answers" data-name="20 Answers" transform="translate(798 389)" fill="#4a5568" font-size="16" font-family="Lato-Regular, Lato" letter-spacing="0.02em"><tspan x="0" y="0">20 </tspan><tspan y="0" font-family="Lato-Semibold, Lato" font-weight="600">Answers</tspan></text>
      <text id="_45_Likes" data-name="45 Likes" transform="translate(1155 389)" fill="#4a5568" font-size="16" font-family="Lato-Regular, Lato" letter-spacing="0.02em"><tspan x="0" y="0">45 Likes</tspan></text>
    </g>
    <g id="Group_355" data-name="Group 355" transform="translate(-6317 6285)">
      <g transform="matrix(1, 0, 0, 1, 438, -127)" filter="url(#Rectangle_829-2)">
        <rect id="Rectangle_829-4" data-name="Rectangle 829" width="478" height="177" rx="15" transform="translate(330 353)" fill="#fff"/>
      </g>
      <text id="How_important_is_research_for_college_apps_" data-name="How important is research for college apps?
" transform="translate(788 263)" fill="#4a5568" font-size="20" font-family="Lato-Bold, Lato" font-weight="700" letter-spacing="0.02em"><tspan x="0" y="0">How important is research for college apps?</tspan><tspan x="0" y="70"></tspan></text>
      <text id="Currently_a_junior_in_HS_and_rejected_from_some_summer_programs_and_I_doubt_professors_still_want_interns_in_their_labs._So_was_wondering_how_to_get_exposure_" data-name="Currently a junior in HS and rejected from some summer programs and I doubt professors still want interns in their labs. So was wondering, how to get exposure?" transform="translate(788 282)" fill="#4a5568" font-size="16" font-family="Lato-Regular, Lato" letter-spacing="0.02em"><tspan x="0" y="16">Currently a junior in HS and rejected from some summer </tspan><tspan x="0" y="40">programs and I doubt professors still want interns in their </tspan><tspan x="0" y="64">labs. So was wondering, how to get exposure?</tspan></text>
      <line id="Line_94-2" data-name="Line 94" x2="437" transform="translate(788.5 365.5)" fill="none" stroke="#c5cfd6" stroke-width="0.5"/>
      <text id="_14_Answers" data-name="14 Answers" transform="translate(798 389)" fill="#4a5568" font-size="16" font-family="Lato-Regular, Lato" letter-spacing="0.02em"><tspan x="0" y="0">14 </tspan><tspan y="0" font-family="Lato-Semibold, Lato" font-weight="600">Answers</tspan></text>
      <text id="_38_Likes" data-name="38 Likes" transform="translate(1155 389)" fill="#4a5568" font-size="16" font-family="Lato-Regular, Lato" letter-spacing="0.02em"><tspan x="0" y="0">38 Likes</tspan></text>
    </g>
    <text id="Olivia_Harris" data-name="Olivia Harris" transform="translate(-5812 6495)" fill="#e77470" font-size="22" font-family="Lato-Bold, Lato" font-weight="700" letter-spacing="0.03em"><tspan x="0" y="0">Olivia Harris</tspan></text>
    <g id="Info" transform="translate(-5825.095 6520.593)">
      <path id="ic_account_balance_24px" d="M3.579,8.347v5.714H5.947V8.347Zm4.737,0v5.714h2.368V8.347ZM2,18.143H17V15.694H2Zm11.053-9.8v5.714h2.368V8.347ZM9.5,1,2,5.082V6.714H17V5.082Z" transform="translate(-1.901 26.531)" fill="#de676b"/>
      <path id="ic_room_24px" d="M10,2A5,5,0,0,0,5,7c0,3.75,5,9.286,5,9.286S15,10.75,15,7A5,5,0,0,0,10,2Zm0,6.786A1.786,1.786,0,1,1,11.786,7,1.786,1.786,0,0,1,10,8.786Z" transform="translate(-2.331 55.149)" fill="#de676b"/>
      <text id="Anthropology" transform="translate(28.596 13.654)" fill="#222" font-size="13" font-family="Lato-Regular, Lato"><tspan x="0" y="0">Anthropology</tspan></text>
      <text id="Stanford_University" data-name="Stanford University" transform="translate(29.564 41.757)" fill="#222" font-size="13" font-family="Lato-Regular, Lato"><tspan x="0" y="0">Stanford University</tspan></text>
      <text id="Denver_CO" data-name="Denver, CO" transform="translate(29.564 69.407)" fill="#222" font-size="13" font-family="Lato-Regular, Lato"><tspan x="0" y="0">Denver, CO</tspan></text>
      <path id="ic_school_24px" d="M4.256,11.285v3.256l5.7,3.109,5.7-3.109V11.285l-5.7,3.109ZM9.953,3,1,7.883l8.953,4.883,7.325-4v5.624h1.628V7.883Z" transform="translate(-2.905 -1.649)" fill="#de676b"/>
    </g>
    <text id="Bio" transform="translate(-5827 6640)" fill="#24305e" font-size="18" font-family="Lato-Bold, Lato" font-weight="700"><tspan x="0" y="0">Bio</tspan></text>
    <text id="Olivia_is_a_cleaner_at_a_studio_with_a_serious_addiction_to_video_games" data-name="Olivia is a cleaner at a studio with a serious addiction to video games" transform="translate(-5827 6654)" fill="#24305e" font-size="14" font-family="Lato-Regular, Lato"><tspan x="0" y="14">Olivia is a cleaner at a studio </tspan><tspan x="0" y="38">with a serious addiction to </tspan><tspan x="0" y="62">video games</tspan></text>
    <g id="Group_360" data-name="Group 360" transform="translate(-377 -638)">
      <g id="Mask_Group_3" data-name="Mask Group 3" clip-path="url(#clip-path)">
        <g id="_Human_Standing" data-name="ðŸ˜Human/Standing" transform="translate(-5479 6936)">
          <g id="Head_Front" data-name="Head/Front" clip-path="url(#clip-path-2)">
            <g id="Head" transform="translate(96.475 29.402)">
              <path id="Head-2" data-name="Head" d="M0,57,6.492,26.93c-3.62-4.223-6.071-9.4-5.662-15.2C2.01-4.978,25.417-1.3,29.97,7.132S33.982,36.958,28.1,38.466c-2.347.6-7.346-.871-12.434-3.919L18.857,57Z" transform="translate(-0.475 -0.402)" fill="#b28b67"/>
            </g>
            <path id="hair" d="M115.2,27.1c-2.471-.405-9.125-.684-10.352-.684-.784,0-1.634.179-2.1-.541-.38-.59-.241-1.587-.354-2.271-.132-.795-.319-1.579-.508-2.362A24.015,24.015,0,0,0,99.4,14.9a19.471,19.471,0,0,0-9.229-8.356A29.637,29.637,0,0,0,76.154,4.622c-5.029.408-9.581,2.068-14.33,3.63a30.032,30.032,0,0,1-14,1.348c-4.768-.732-8.371-3.317-12.393-5.77A23.086,23.086,0,0,0,21.746.054,26.365,26.365,0,0,0,9.258,4.788C5.743,7.133,2.842,9.954,1.2,13.925-.557,18.2-.555,22.883,2.342,26.658c4.2,5.471,11.994,6.886,18.479,6.745A35.306,35.306,0,0,0,31.8,31.392c4.723-1.661,8.8-4.477,13.223-6.761a34.408,34.408,0,0,1,6.464-2.587c2.18-.616,4.327-.9,6.3.419A29.757,29.757,0,0,0,64.132,26.1a20.473,20.473,0,0,0,7.16,1.286c4.75-.037,9.433-1.517,14.047-2.508,3.762-.808,7.788-1.614,11.624-.837,1.6.324,3.938.994,4.517,2.657-9.73,1.763-13.551,13.8-10.808,22.63,1.48,4.768,10.379,10.341,13.839,7.835,2.192-1.588.861-3.673,0-5.049-1.649-2.635-2.214-6.021.838-7.855,2.632-1.582,5.4,2.175,5.453,2.171.724-.057,6.975-3.593,11.283-8.752,4.249.252,4.894-2.55,3.879-4.841S118.616,27.657,115.2,27.1Z" transform="translate(0 0)" fill="#191847"/>
          </g>
          <g id="Body_Long_Sleeve_1" data-name="Body/Long Sleeve 1" transform="translate(27.438 69.34)">
            <path id="Coat_Back" data-name="Coat Back" d="M0,1.743,6.629,0C22.53,12.936,31.5,46.573,41.664,50.24c9.61,3.467,22.34-1.815,37.413-8.763l5.7,10.231C71.974,68.243,42.982,83.8,30.126,77.492,9.573,67.4,1.38,25.667,0,1.743Z" transform="matrix(0.996, 0.087, -0.087, 0.996, 78.817, 2.429)" fill="#db2721"/>
            <path id="Shirt" d="M0,89.059H59.772c2.731,0,2.217-3.944,1.822-5.934C57.038,60.157,39.25,35.4,39.25,2.7L22.008,0C7.748,22.935,2.816,51.174,0,89.059Z" transform="translate(49.217)" fill="#dde3e9"/>
            <path id="Coat_Front" data-name="Coat Front" d="M0,110.823Q12.105,35.746,70.113,0H76.94s23.217,79.142,12.8,105.465h-53.8A196.418,196.418,0,0,1,43.256,65.8Q24.978,98.774,12.529,113.277Z" fill="#ff4133"/>
          </g>
        </g>
      </g>
    </g>
  </g>
</svg>
