<svg xmlns="http://www.w3.org/2000/svg" xmlns:xlink="http://www.w3.org/1999/xlink" width="150" height="220" viewBox="0 0 150 220">
  <defs>
    <clipPath id="clip-path">
      <rect id="Rectangle_795" data-name="Rectangle 795" width="150" height="220" rx="15" transform="translate(278 1145)" fill="#a8d0e6"/>
    </clipPath>
    <clipPath id="clip-path-2">
      <rect width="238.186" height="396.98" fill="none"/>
    </clipPath>
    <clipPath id="clip-path-3">
      <rect width="43.349" height="74.98" fill="none"/>
    </clipPath>
    <clipPath id="clip-path-4">
      <rect width="177" height="239" fill="none"/>
    </clipPath>
    <clipPath id="clip-path-5">
      <rect width="61" height="21" fill="none"/>
    </clipPath>
    <clipPath id="clip-path-7">
      <rect width="238.186" height="216.124" fill="none"/>
    </clipPath>
  </defs>
  <g id="Group_349" data-name="Group 349" transform="translate(-278 -1145)">
    <rect id="Rectangle_794" data-name="Rectangle 794" width="150" height="220" rx="15" transform="translate(278 1145)" fill="#a8d0e6"/>
    <g id="Mask_Group_1" data-name="Mask Group 1" clip-path="url(#clip-path)">
      <g id="_Human_Standing" data-name="ðŸ˜Human/Standing" transform="translate(225.564 1179.02)" clip-path="url(#clip-path-2)">
        <g id="Head_Front" data-name="Head/Front" transform="translate(109.325)" clip-path="url(#clip-path-3)">
          <g id="Head" transform="translate(0.111 1.98)">
            <path id="Head-2" data-name="Head" d="M0,73,8.262,34.49C3.655,29.081.536,22.452,1.057,15.026c1.5-21.4,31.292-16.692,37.086-5.891s5.107,38.2-2.382,40.129c-2.987.77-9.349-1.116-15.825-5.019L24,73Z" fill="#b28b67"/>
          </g>
          <path id="Hair" d="M20.206,45.051c-1.612-4.869-2.226-18.887-2.375-23.029a6.063,6.063,0,0,0-.72-.043,6,6,0,0,0-4.192,10.292c-1.389,1.959-2.944,4.007-4.727,6.119-6.7-4.018-11.669-15.782-5.12-27.083,1.81-5.536,5.908-8.493,10.747-9.866A17.408,17.408,0,0,1,25.243.6c6.734.578,12.747,2.632,14.451,3.851,0,6.375-1.236,8.266-11.786,8.1-2.592,1.369-4.586,3.727-6.662,6.817.015.206,1.41,19.2,7.291,19.2,5.912,0,10.929-3.754,13.523-3.754,1.891,0,1.469,2.367.215,4.121-1.034,1.448-6.07,2.843-6.07,5.088,0,1.267,1.269,1.265,2.373,1.263.851,0,1.606,0,1.606.577,0,2.2.7,6.341-3.122,6.341C33.195,52.2,22.106,50.792,20.206,45.051Z" transform="translate(0 0)" fill="#191847"/>
        </g>
        <g id="Bottom_Skinny_Jeans_1" data-name="Bottom/Skinny Jeans 1" transform="translate(45.436 157.98)" clip-path="url(#clip-path-4)">
          <path id="Leg" d="M0,0,36.255,127.227,62.707,221H82L53.891,0Z" transform="translate(56 0)" fill="#191847"/>
          <path id="Leg-2" data-name="Leg" d="M44.518,0c-.839,65.574-3.7,101.34-4.579,107.3S25.746,151.156,0,221H19.986q49.165-100.5,54.89-113.7c3.817-8.8,15.6-44.564,33.338-107.3Z" transform="translate(1.786)" fill="#2f3676"/>
          <g id="Left_Shoe" data-name="Left Shoe" transform="translate(0 218)" clip-path="url(#clip-path-5)">
            <path id="Shoe" d="M0,21,1,0H22C36.936,10.5,61,17,61,17v4H23L10,19v2Z" fill="#191847"/>
          </g>
          <g id="Right_Shoe" data-name="Right Shoe" transform="translate(116 218)" clip-path="url(#clip-path-5)">
            <path id="Shoe-2" data-name="Shoe" d="M0,21,1,0H22C36.936,10.5,61,17,61,17v4H23L10,19v2Z" fill="#191847"/>
          </g>
        </g>
        <g id="Body_Long_Sleeve_1" data-name="Body/Long Sleeve 1" transform="translate(0 52.461)" clip-path="url(#clip-path-7)">
          <path id="Skin" d="M32.044,84.424c-1.486-2.226-3.151-4.451-7.8-3.033C15.954,83.917,9.118,89.641.913,82.834-.1,82-.946,79.261,2.26,77.667,10.248,73.695,21.977,66.426,23.8,63.748,27.53,58.269,49.1,0,49.1,0L66.815,2.572S38.3,64.446,36.238,68.018c-3.09,5.357.544,14.687,1.964,19.626a6,6,0,0,1-1.661.26C34.256,87.9,33.2,86.164,32.044,84.424Zm176.1-41.184-30.6-15.269,8.25-16.9,30.186,25.592a85.865,85.865,0,0,1,21.024,10.2c1.281,1.343,2.757,3.983-2.885,3.149s-11.614-1.455-12.532.425,2.353,4.434.588,6.935a.74.74,0,0,1-.64.326Q218.809,57.706,208.142,43.241Z" transform="translate(0 78.055)" fill="#b28b67"/>
          <path id="Coat_Back" data-name="Coat Back" d="M0,4.572,10.617,0C28.689,35.751,53.944,69.663,93.548,96.708l-7.759,16.566C51.637,96.983,19.591,84.811,4.6,57.194-.426,47.925.666,16.123,0,4.572Z" transform="matrix(0.996, 0.087, -0.087, 0.996, 123.529, 1.296)" fill="#c5cfd6"/>
          <path id="Shirt" d="M0,108.3s47.157,5,74.236,0c2.237-.413,2.589-4.158,1.552-6.7C59.636,62.022,48.56,27.489,48.56,0,44.115,2.241,33,.672,33,.672,13.086,29,3.933,61.5,0,108.3Z" transform="translate(85.436 2.221)" fill="#323337"/>
          <path id="Coat_Front" data-name="Coat Front" d="M22.593,216.124c2.148-44.884,18.7-98.558,35.839-144.134-12.65,12.585-27.422,33.681-39.362,68.8L0,135.9C19.433,52.158,76.368,8.971,87.417,1.263l.322-.744H88.5c.514-.346.785-.518.785-.518l-.029.518h8.3c1.932,11.365,8.027,165.262,26.842,215.606Z" transform="translate(24.228)" fill="#dde3e9"/>
        </g>
      </g>
    </g>
  </g>
</svg>
