<svg xmlns="http://www.w3.org/2000/svg" xmlns:xlink="http://www.w3.org/1999/xlink" width="887.478" height="802.186" viewBox="0 0 887.478 802.186">
  <defs>
    <clipPath id="clip-path">
      <rect width="73" height="90" fill="none"/>
    </clipPath>
    <clipPath id="clip-path-2">
      <rect width="268.813" height="172" fill="none"/>
    </clipPath>
    <clipPath id="clip-path-3">
      <rect width="147" height="124" fill="none"/>
    </clipPath>
    <clipPath id="clip-path-4">
      <rect width="57.813" height="20.668" fill="none"/>
    </clipPath>
    <clipPath id="clip-path-6">
      <rect width="209.502" height="181.157" fill="none"/>
    </clipPath>
    <clipPath id="clip-path-7">
      <rect width="209.502" height="413" fill="none"/>
    </clipPath>
    <clipPath id="clip-path-8">
      <rect width="69.669" height="91" fill="none"/>
    </clipPath>
    <clipPath id="clip-path-9">
      <rect width="151.813" height="239" fill="none"/>
    </clipPath>
  </defs>
  <g id="Group_349" data-name="Group 349" transform="translate(-975.188 -288)">
    <g id="Background_Shape_2" data-name="Background Shape 2" transform="matrix(0.914, -0.407, 0.407, 0.914, 1143, 865.236)" opacity="0.505">
      <path id="Background_Shape" data-name="Background Shape" d="M630.16,153.8c9.19,68.74-213.675,113.577-405.5,82.286S-55.166,82.6,36.37,17.489,620.97,85.055,630.16,153.8Z" transform="translate(0 0)" fill="#f2f2f2"/>
    </g>
    <g id="A_Human_Standing" data-name="A Human/Standing" transform="translate(975.188 592)">
      <g id="Head_Front" data-name="Head/Front" transform="translate(114.813)" clip-path="url(#clip-path)">
        <g id="Head" transform="translate(24 17)">
          <path id="Head-2" data-name="Head" d="M0,73,8.262,34.49C3.655,29.081.536,22.452,1.057,15.025c1.5-21.4,31.292-16.692,37.086-5.891s5.107,38.2-2.382,40.129c-2.987.77-9.349-1.116-15.825-5.019L24,73Z" transform="translate(0 0)" fill="#b28b67"/>
        </g>
        <path id="hair" d="M72.776,11.16A5.191,5.191,0,0,0,69.14,7.474,4.788,4.788,0,0,0,67.8,7.341c-.161.006-.206.053-.282-.06a1.48,1.48,0,0,1-.08-.386,7.282,7.282,0,0,0-.272-.9A7.354,7.354,0,0,0,65.4,3.357,8.929,8.929,0,0,0,60.032.82a7.819,7.819,0,0,0-3.224.44,12.767,12.767,0,0,0-1.565.669c-.153.077-.648.452-.8.427-.169-.027-.51-.447-.647-.553A9.478,9.478,0,0,0,47.872,0c-2.392.018-4.7.137-6.69,1.6a13.38,13.38,0,0,0-1.207,1c-.2.187-.4.382-.583.584q-.169.183-.327.375c-.179.218-.15.289-.4.137a4.973,4.973,0,0,0-3.193-.718,7.146,7.146,0,0,0-1.928.545c-.209.09-.694.447-.917.45s-.7-.328-.927-.412A7.6,7.6,0,0,0,27.846,3.2a9.948,9.948,0,0,0-3.777,1.485,5.078,5.078,0,0,0-1.4,1.273c-.165.227-.313.468-.5.678-.109.123-.326.25-.384.406a8.3,8.3,0,0,0-1.6-.707,3.944,3.944,0,0,0-2.253.086,8.958,8.958,0,0,0-3.552,2.524,10.086,10.086,0,0,0-1.315,1.766q-.268.455-.492.934a3.474,3.474,0,0,1-.216.487c-.123.179-.206.183-.429.261a6.93,6.93,0,0,0-2.951,1.976,6.8,6.8,0,0,0-1.528,3.24,1.651,1.651,0,0,1-.061.4c-.056.052-.284.029-.37.039a7.787,7.787,0,0,0-.887.156,7.321,7.321,0,0,0-1.559.561A8.148,8.148,0,0,0,.576,23.536a9.676,9.676,0,0,0,.151,6.624,6.472,6.472,0,0,0,.492.97c.118.189.156.19.079.388-.085.221-.241.436-.342.651A9.352,9.352,0,0,0,.25,34.385a10.388,10.388,0,0,0-.122,3.829,5.527,5.527,0,0,0,.591,1.68,4.819,4.819,0,0,0,.518.752c.1.121.21.237.323.348a2.155,2.155,0,0,1,.2.189c.134.172.162.031.093.284a11.335,11.335,0,0,1-.451,1.048c-.138.355-.264.715-.378,1.078a15.906,15.906,0,0,0-.55,2.247,7.056,7.056,0,0,0,.5,4.365,4.367,4.367,0,0,0,1.235,1.47,4.584,4.584,0,0,0,.811.493c.147.07.335.1.4.242s-.035.457-.059.628a10.466,10.466,0,0,0,.123,4.509,6.23,6.23,0,0,0,2.469,3.315,7.683,7.683,0,0,0,7.68.218A8.063,8.063,0,0,0,15.353,59.9c1.315,1.771,4.022,1.714,5.944,1.21a8.538,8.538,0,0,0,5.424-4.482c1.514,1.843,4.691,1.245,5.741-.754a4.784,4.784,0,0,0,.484-1.574c.039-.287.014-.576.044-.861a4.449,4.449,0,0,1,.419-1.066,5.886,5.886,0,0,0,.447-2.125,10.789,10.789,0,0,0-.082-1.141,3.921,3.921,0,0,1,.116-1,4.585,4.585,0,0,1-1.941-.243,3.833,3.833,0,0,1-1.5-1.055,8.756,8.756,0,0,1-1.888-3.529c-.854-2.8-.5-6.149,2.308-7.683,1.31-.715,5.234-.712,6.794-.359,1.64.371,3.5,3.991,3.591,4.331.057.211.028.471.222.611.425.308,1.126-.227,1.44-.491a5.678,5.678,0,0,0,1.261-1.678,20.755,20.755,0,0,0,1.73-4.243c.32-1.131.524-2.3.942-3.4a5.2,5.2,0,0,1,2.091-2.7,18.409,18.409,0,0,1,3.6-1.456,8.928,8.928,0,0,0,3.327-1.828,4.6,4.6,0,0,0,.571-.636c.131-.183.26-.532.459-.648.31-.18.761.288,1.029.458a11.891,11.891,0,0,1,3.311,3.286,20.447,20.447,0,0,1,2.2,3.912,11.313,11.313,0,0,0,1.478,3.263c.343.385,2.894.618,3.72.282a4.7,4.7,0,0,0,2.029-1.756,2.728,2.728,0,0,0,.23-1.788c-.071-.361-.217-.7-.3-1.052a3.279,3.279,0,0,0-.273-.851,2.1,2.1,0,0,0-1.309-1.043,6.147,6.147,0,0,0,1.414-1.917,8.229,8.229,0,0,0,.732-2.5,3.033,3.033,0,0,0-.405-1.946,5.124,5.124,0,0,0-1.661-1.379A10.807,10.807,0,0,0,71.4,17.552,7.864,7.864,0,0,0,72.776,11.16Z" transform="translate(0 0)" fill="#191847"/>
      </g>
      <g id="Bottom_Skinny_Jeans_1" data-name="Bottom/Skinny Jeans 1" transform="translate(0 177)" clip-path="url(#clip-path-2)">
        <g id="Seat" transform="translate(0 42)" clip-path="url(#clip-path-3)">
          <path id="Seat-2" data-name="Seat" d="M131,124H16A16,16,0,0,1,0,108V16A16,16,0,0,1,16,0H131a16,16,0,0,1,16,16v92a16,16,0,0,1-16,16ZM32,28a4.005,4.005,0,0,0-4,4V92a4.005,4.005,0,0,0,4,4h83a4,4,0,0,0,4-4V32a4,4,0,0,0-4-4Z" transform="translate(0)" fill="#c5cfd6"/>
        </g>
        <path id="Skin" d="M126.572,64.414c-6.368-22.307-11.213-41.937-12.437-49.268-2.92-17.48,22.461-18.5,25.816-9.811,5.078,13.149,13.943,56.351,24.594,121.606l-12.175,3.552C139.559,102.136,130.292,77.442,126.572,64.414ZM3.75,41.5c11.756-4.647,52.924-19.189,72.779-23.3,5.706-1.183,11.236-2.281,16.435-3.273,15.454-2.95,23.46,24.929,8.576,27.071C64.473,47.328,11.924,52.837,7.428,53.456a5.731,5.731,0,0,1-.778.053C.749,53.51-3.331,44.3,3.75,41.5Z" transform="translate(66.138 32.166)" fill="#b28b67"/>
        <path id="Leg_Back" data-name="Leg Back" d="M63.76,42.729a13,13,0,0,1-.172-3.313L0,7.047V0H7.562s92.277,23.513,94.307,30.137c.014.047.027.093.038.14q.047.062.093.125c12.191,16.767,19.493,98.624,21.89,104.753l-23.362,3.486C91.591,105.5,63,82.418,63.76,42.729Z" transform="translate(105)" fill="#1f28cf"/>
        <path id="Leg_Front" data-name="Leg Front" d="M31.077,65.228l19.206-6.588c-5.817-1.164-11.176-2.2-15.76-3.008C4.909,50.438-3.726,34.586,1.38,0H55.942c8.913,2.561,55.232,21.985,79.265,32.316,15.906,6.838,10.892,31.488,1.884,37.9a.879.879,0,0,1-.5.781C103.268,84.811,74.732,84.14,56,83.47c-8.509-.3-15-.609-19,.443Z" transform="translate(60)" fill="#2b44ff"/>
        <g id="Right_Shoe" data-name="Right Shoe" transform="matrix(0.438, 0.899, -0.899, 0.438, 78.628, 66.525)" clip-path="url(#clip-path-4)">
          <path id="shoe" d="M4.474,5.033A2,2,0,0,0,1.908,6.381L0,13.106A64.242,64.242,0,0,0,.9,21H57.3s2.2-7.268-2.538-7.848-7.87-1.047-7.87-1.047L20.68.419a1,1,0,0,0-1.332.532L17.663,5.039s-4.385,2.046-7.127,2.046Z" transform="translate(0 -0.332)" fill="#e4e4e4"/>
        </g>
        <g id="Right_Shoe-2" data-name="Right Shoe" transform="translate(211 151.332)" clip-path="url(#clip-path-4)">
          <path id="shoe-2" data-name="shoe" d="M4.474,5.033A2,2,0,0,0,1.908,6.381L0,13.106A64.242,64.242,0,0,0,.9,21H57.3s2.2-7.268-2.538-7.848-7.87-1.047-7.87-1.047L20.68.419a1,1,0,0,0-1.332.532L17.663,5.039s-4.385,2.046-7.127,2.046Z" transform="translate(0 -0.332)" fill="#e4e4e4"/>
        </g>
      </g>
      <g id="Body_Long_Sleeve_1" data-name="Body/Long Sleeve 1" transform="translate(56.148 72)" clip-path="url(#clip-path-6)">
        <path id="Skin-2" data-name="Skin" d="M1.227,89.872c-1.116-.688-2.338-3.28.615-5.3C9.2,79.522,19.8,70.692,21.236,67.785,24.166,61.841,34.145,3.9,34.145,3.9l20.9.083s-19.354,62.481-20.9,66.3c-2.314,5.735,2.583,14.468,4.676,19.162-3.3,1.477-4.834-.409-6.512-2.294-1.789-2.01-3.745-4.019-8.184-1.954-5.68,2.643-10.377,6.838-15.975,6.838A12.989,12.989,0,0,1,1.227,89.872Zm178.7-56.225L150.473,16.28,159.881,0,188.21,27.635a85.858,85.858,0,0,1,20.26,11.646c1.184,1.428,2.473,4.164-3.1,2.94s-11.485-2.262-12.532-.451,2.038,4.587.1,6.959a.732.732,0,0,1-.593.283Q189.684,49.013,179.93,33.647Z" transform="translate(0 89.123)" fill="#b28b67"/>
        <path id="Coat_Back" data-name="Coat Back" d="M0,2.231,8.485,0Q35.593,53.627,95,94.194l-24.957,36.37C29.32,90.685,2.652,48.2,0,2.231Z" transform="matrix(0.996, 0.087, -0.087, 0.996, 93.727, 3.109)" fill="#191847"/>
        <path id="Shirt" d="M0,114H77S50.241,48.938,50.241,3.461L27.014,0C8.76,29.358,3.6,65.5,0,114Z" transform="translate(55.837 0)" fill="#dde3e9"/>
        <path id="Coat_Front" data-name="Coat Front" d="M0,147C8.421,52,61.5,0,61.5,0l.018.016L61.531,0h1.517c2.722.094,8.29.338,8.29.338l5.612,16.04c.891,29.333,10.4,118.229,10.4,118.229H36.95q.129,6.113.581,12.394Z" transform="translate(20.837)" fill="#2f3676"/>
        <path id="Shade" d="M14.1,49.5H.062A255.488,255.488,0,0,1,3.861,0,268.911,268.911,0,0,0,7.249,27.685C9.078,37.594,11.384,44.932,14.1,49.5Z" transform="translate(57.734 85.502)" fill="rgba(0,0,0,0.1)"/>
        <path id="Light" d="M0,11.571,24.889,0V11.571Z" transform="translate(68.948 92.429)" fill="rgba(255,255,255,0.2)"/>
      </g>
    </g>
    <g id="Component_27_2" data-name="Component 27 – 2" transform="translate(1609 288)">
      <g id="Head_Front_Rad" data-name="Head/Front/Rad" transform="translate(92)">
        <g id="Head-3" data-name="Head" transform="translate(7 16)">
          <path id="Head-4" data-name="Head" d="M0,0,8.262,38.51C3.655,43.919.536,50.548,1.057,57.975c1.5,21.4,31.292,16.692,37.086,5.891s5.107-38.2-2.382-40.129c-2.987-.77-9.349,1.116-15.825,5.019L24,0Z" transform="translate(42 73) rotate(180)" fill="#b28b67"/>
        </g>
        <path id="hair-2" data-name="hair" d="M-7.593,23.9A7.5,7.5,0,0,0-6.03,21a29.39,29.39,0,0,0,1-3.3c.5-2.249.509-4.836-1.1-6.582a7.548,7.548,0,0,0-5-2.165,9.187,9.187,0,0,0-3.545.449c-1.129.371-2.1,1.111-3.2,1.57a14.306,14.306,0,0,0-1.687-7.03,7.008,7.008,0,0,0-5.218-3.4,10.347,10.347,0,0,0-6.357,1.28c-.494.267-.984.547-1.453.865a4.071,4.071,0,0,1-1.261.693c-.513.121-.768-.176-1.1-.55a8.368,8.368,0,0,0-1.3-1.168A7.647,7.647,0,0,0-43.4.423a6.649,6.649,0,0,0-2.917,2.109c-.666.873-1.14,2.258-2.059,2.866-.39.258-.665-.084-1.02-.337-.533-.38-1.042-.8-1.581-1.169A7.242,7.242,0,0,0-53.43,2.781c-1.286-.3-3.064-.228-3.432,1.457a6.954,6.954,0,0,0,.012,1.947c.061.876.125,1.751.2,2.625a18.955,18.955,0,0,0,.256,1.957,2.863,2.863,0,0,1,.127,1.343c-.186.435-1.046.188-1.413.2a5.582,5.582,0,0,0-2.124.467,2.286,2.286,0,0,0-1.285,1.189,2.136,2.136,0,0,0-.036,1.118,3.335,3.335,0,0,1-.068,1.147c-.974-.48-4.349-1.545-4.774.2a2.731,2.731,0,0,0,.426,1.728,14.979,14.979,0,0,0,1.573,2.395,21.412,21.412,0,0,0,4.19,4.065,2.746,2.746,0,0,0-.716,4.6,3.4,3.4,0,0,0,2.5.725,5.524,5.524,0,0,1,1.033-.082,2.47,2.47,0,0,0,.468.158,13.928,13.928,0,0,0,3.832-.486,12.636,12.636,0,0,0,5.844-3.056,1.8,1.8,0,0,1,1.352-.621c.5.005,1,.143,1.5.156a10.791,10.791,0,0,0,3.761-1.048,14.189,14.189,0,0,0,1.232,5c.556,1.223,1.717,1.4,2.858,1.508,3.649.343,7.31-.04,10.963-.035-3.536.8-7.191,1.129-10.7,2.069-1.584.425-.375,1.493.3,2.233a12.87,12.87,0,0,1,2.52,4.32c1.73-2.255,4.788-3.741,7.5-3.048,2.993.765,5.1,4.813,3.187,7.723-1.111,1.689-3.118,2.341-4.788,3.067,1.3,1.354,1.618,3.354,2.4,5.039a3.606,3.606,0,0,0,1.794,2.06,2.1,2.1,0,0,1,.947.377c.313.323.387.684.786.961a4.434,4.434,0,0,0,5.494-.423,3.586,3.586,0,0,0-.122-4.7c1.7-.708,4.791-1.618,4.116-4.263C-8.032,46.613.9,40.646-4.037,36.286c2.71-1.531,5.2-5.274,3.459-8.574-1.34-2.541-4.457-3.676-7.015-3.811" transform="translate(66 0)" fill="#191847"/>
      </g>
      <g id="Bottom_Standing_Skinny_Jeans" data-name="Bottom/Standing/Skinny Jeans" transform="translate(48 219)">
        <path id="Leg" d="M82,0,45.745,127.227,19.293,221H0L28.109,0Z" transform="translate(40)" fill="#191847"/>
        <path id="Leg-2" data-name="Leg" d="M63.7,0c.839,65.574,3.7,101.34,4.579,107.3S82.468,151.156,108.214,221H88.227Q39.063,120.5,33.338,107.3C29.521,98.5,17.741,62.734,0,0Z" transform="translate(68)" fill="#2f3676"/>
        <g id="Left_Shoe" data-name="Left Shoe" transform="translate(116 218)">
          <path id="Shoe-3" data-name="Shoe" d="M61,21,60,0H39C24.064,10.5,0,17,0,17v4H38l13-2v2Z" fill="#191847"/>
        </g>
        <g id="Right_Shoe-3" data-name="Right Shoe" transform="translate(0 219)">
          <path id="Shoe-4" data-name="Shoe" d="M61,21,60,0H39C24.064,10.5,0,17,0,17v4H38l13-2v2Z" fill="#191847"/>
        </g>
      </g>
      <g id="Body_Jacket_2" data-name="Body/Jacket 2" transform="translate(0 84.787)">
        <path id="Skin-3" data-name="Skin" d="M31.789,3.733c-1.363,2.293-2.913,4.586-7.622,3.416C15.764,5.062,8.639-.293.8,6.929c-.963.887-1.669,3.663,1.616,5.087C10.6,15.563,22.692,22.2,24.652,24.782Q28.663,30.056,49.508,85L70,80.935Q39.088,23.326,36.845,19.87C33.48,14.685,36.62,5.182,37.779.178A6.313,6.313,0,0,0,36.353,0C33.886,0,32.9,1.866,31.789,3.733ZM196,89.383,232.234,105.3a85.87,85.87,0,0,0,18.389,14.422c1.768.563,4.787.733,1.565-3.973s-6.4-9.8-5.112-11.45,5.017.171,6.49-2.511q1.474-2.682-18.859-6.417L207.57,74.561Z" transform="translate(253.666 167) rotate(180)" fill="#b28b67"/>
        <path id="Coat_Back-2" data-name="Coat Back" d="M0,98.8l8.485,2.231C28.84,84.472,40.322,41.416,53.333,36.722c12.3-4.438,28.6,2.324,47.891,11.217l7.293-13.1c-16.386-21.165-53.5-41.081-69.953-33C12.253,14.751,1.767,68.176,0,98.8Z" transform="matrix(-0.996, 0.087, -0.087, -0.996, 137.993, 104.756)" fill="#db2721"/>
        <path id="Shirt-2" data-name="Shirt" d="M79.25,114H2.738c-3.5,0-2.837-5.048-2.332-7.6C6.239,77,29.008,45.312,29.008,3.461L51.078,0C69.332,29.358,75.645,65.5,79.25,114Z" transform="translate(88)" fill="#dde3e9"/>
        <path id="Coat_Front-2" data-name="Coat Front" d="M0,3.141Q15.5,99.244,89.748,145h8.738S128.2,43.694,114.872,10H46c1.09,16.437,4.583,33.819,9.369,50.767Q31.973,18.565,16.037,0Z" transform="translate(228.313 145) rotate(180)" fill="#ff4133"/>
      </g>
    </g>
    <g id="A_Human_Standing-2" data-name="A Human/Standing" transform="translate(1342.498 432)" clip-path="url(#clip-path-7)">
      <g id="Head_Front-2" data-name="Head/Front" transform="translate(55.418)" clip-path="url(#clip-path-8)">
        <path id="Hair_Back" data-name="Hair Back" d="M31.419,64.707C42.848,64.707,47,51.024,53.5,43.515c4.646-5.372,12.574-3.77,14.921-11.292C74.321,13.311,58.525,0,37.919,0S3.419,11.674.419,29.224,10.813,64.707,31.419,64.707Z" fill="#191847"/>
        <g id="Head-5" data-name="Head" transform="translate(24.419 18)">
          <path id="Head-6" data-name="Head" d="M0,73,8.262,34.49C3.655,29.081.536,22.452,1.057,15.026c1.5-21.4,31.292-16.692,37.086-5.891s5.107,38.2-2.382,40.129c-2.987.77-9.349-1.116-15.825-5.019L24,73Z" fill="#b28b67"/>
        </g>
        <path id="Hair-3" data-name="Hair" d="M13.1,43.5h0c-1.327,0-3.467-1.278-5.583-3.333a26.158,26.158,0,0,1-5.857-8.695A20.819,20.819,0,0,1,.336,19.638c.874-4.694,3.445-9.157,7.642-13.266a22.546,22.546,0,0,1,7.415-4.924A20.673,20.673,0,0,1,23.075,0c7.134,0,13.092,3.343,16.008,5.337,4.1,2.8,7.107,6.275,7.309,8.443a1.545,1.545,0,0,1-1.447,1.787c-4.844.909-14.1,5.47-21.2,11.529a6.293,6.293,0,0,0-2.933-.723,6.087,6.087,0,0,0-6.157,6,5.85,5.85,0,0,0,1.234,3.6A19.223,19.223,0,0,0,13.1,43.5Z" transform="translate(19.058 11.628)" fill="#191847"/>
      </g>
      <g id="Bottom_Skinny_Jeans_1-2" data-name="Bottom/Skinny Jeans 1" transform="translate(28.837 174)" clip-path="url(#clip-path-9)">
        <path id="Leg-3" data-name="Leg" d="M0,0,37.631,123.024,55.86,227.648H70.153L50.891,0Z" transform="translate(43 0)" fill="#997659"/>
        <path id="Leg-4" data-name="Leg" d="M27.974,0c2.556,67.547-.452,102.389-1.024,108.526S18.545,154.455,0,229.708l15.23-5.231c29.308-69.019,39.295-104.889,42.656-113.952S70.176,64.621,84.67,0Z" transform="translate(1.564 0)" fill="#b28b67"/>
        <g id="Left_Shoe-2" data-name="Left Shoe" transform="translate(0 218.332)" clip-path="url(#clip-path-4)">
          <path id="shoe-5" data-name="shoe" d="M4.474,5.033A2,2,0,0,0,1.908,6.381L0,13.106A64.242,64.242,0,0,0,.9,21H57.3s2.2-7.268-2.538-7.848-7.87-1.047-7.87-1.047L20.68.419a1,1,0,0,0-1.332.532L17.663,5.039s-4.385,2.046-7.127,2.046Z" transform="translate(0 -0.332)" fill="#e4e4e4"/>
        </g>
        <g id="Right_Shoe-4" data-name="Right Shoe" transform="translate(94 218.332)" clip-path="url(#clip-path-4)">
          <path id="shoe-6" data-name="shoe" d="M4.474,5.033A2,2,0,0,0,1.908,6.381L0,13.106A64.242,64.242,0,0,0,.9,21H57.3s2.2-7.268-2.538-7.848-7.87-1.047-7.87-1.047L20.68.419a1,1,0,0,0-1.332.532L17.663,5.039s-4.385,2.046-7.127,2.046Z" transform="translate(0 -0.332)" fill="#e4e4e4"/>
        </g>
        <path id="Bottom" d="M0,0,16,62.68H64.87L57.584,0Z" transform="translate(38 0)" fill="#69a1ac"/>
        <path id="Bottom-2" data-name="Bottom" d="M4.874,0c-7.9,23.671-3,62.68-3,62.68h49.87L65.458,0Z" transform="translate(24.126)" fill="#89c5cc"/>
      </g>
      <g id="Body_Long_Sleeve_1-2" data-name="Body/Long Sleeve 1" transform="translate(0 69)" clip-path="url(#clip-path-6)">
        <path id="Skin-4" data-name="Skin" d="M1.227,89.872c-1.116-.688-2.338-3.28.615-5.3C9.2,79.522,19.8,70.692,21.236,67.785,24.166,61.841,34.145,3.9,34.145,3.9l20.9.083s-19.354,62.481-20.9,66.3c-2.314,5.735,2.583,14.468,4.676,19.162-3.3,1.477-4.834-.409-6.512-2.294-1.789-2.01-3.745-4.019-8.184-1.954-5.68,2.643-10.377,6.838-15.975,6.838A12.989,12.989,0,0,1,1.227,89.872Zm178.7-56.225L150.473,16.28,159.881,0,188.21,27.635a85.858,85.858,0,0,1,20.26,11.646c1.184,1.428,2.473,4.164-3.1,2.94s-11.485-2.262-12.532-.451,2.038,4.587.1,6.959a.732.732,0,0,1-.593.283Q189.684,49.013,179.93,33.647Z" transform="translate(0 89.123)" fill="#b28b67"/>
        <path id="Coat_Back-3" data-name="Coat Back" d="M0,2.231,8.485,0Q35.593,53.627,95,94.194l-24.957,36.37C29.32,90.685,2.652,48.2,0,2.231Z" transform="matrix(0.996, 0.087, -0.087, 0.996, 93.727, 3.109)" fill="#191847"/>
        <path id="Shirt-3" data-name="Shirt" d="M0,114H77S50.241,48.938,50.241,3.461L27.014,0C8.76,29.358,3.6,65.5,0,114Z" transform="translate(55.837 0)" fill="#dde3e9"/>
        <path id="Coat_Front-3" data-name="Coat Front" d="M0,147C8.421,52,61.5,0,61.5,0l.018.016L61.531,0h1.517c2.722.094,8.29.338,8.29.338l5.612,16.04c.891,29.333,10.4,118.229,10.4,118.229H36.95q.129,6.113.581,12.394Z" transform="translate(20.837)" fill="#2f3676"/>
        <path id="Shade-2" data-name="Shade" d="M14.277,52.767H.235a255.488,255.488,0,0,1,3.8-49.5A268.911,268.911,0,0,0,7.422,30.954c1.829,9.909,4.135,17.247,6.854,21.811Z" transform="translate(57.56 82.233)" fill="rgba(0,0,0,0.1)"/>
        <path id="Light-2" data-name="Light" d="M0,11.571,24.889,0V11.571Z" transform="translate(68.948 92.429)" fill="rgba(255,255,255,0.2)"/>
      </g>
    </g>
  </g>
</svg>
