<svg xmlns="http://www.w3.org/2000/svg" xmlns:xlink="http://www.w3.org/1999/xlink" width="150" height="220" viewBox="0 0 150 220">
  <defs>
    <clipPath id="clip-path">
      <rect id="Rectangle_795" data-name="Rectangle 795" width="150" height="220" rx="15" transform="translate(278 1145)" fill="#a8d0e6"/>
    </clipPath>
    <clipPath id="clip-path-2">
      <rect id="Rectangle_796" data-name="Rectangle 796" width="150" height="220" rx="15" transform="translate(1244 1146)" fill="#f8e9a1"/>
    </clipPath>
    <clipPath id="clip-path-3">
      <rect width="276.424" height="433" fill="none"/>
    </clipPath>
    <clipPath id="clip-path-4">
      <rect width="165" height="111" fill="none"/>
    </clipPath>
    <clipPath id="clip-path-5">
      <rect width="264.424" height="266.787" fill="none"/>
    </clipPath>
    <clipPath id="clip-path-6">
      <rect width="57.813" height="20.668" fill="none"/>
    </clipPath>
    <clipPath id="clip-path-8">
      <rect width="253.666" height="167" fill="none"/>
    </clipPath>
    <clipPath id="clip-path-9">
      <rect width="44" height="75" fill="none"/>
    </clipPath>
    <clipPath id="clip-path-10">
      <rect width="272.813" height="174" fill="none"/>
    </clipPath>
    <clipPath id="clip-path-11">
      <rect width="154" height="147" fill="none"/>
    </clipPath>
    <clipPath id="clip-path-14">
      <rect width="258.388" height="226" fill="none"/>
    </clipPath>
  </defs>
  <g id="Group_349" data-name="Group 349" transform="translate(-1244 -1146)">
    <rect id="Rectangle_794" data-name="Rectangle 794" width="150" height="220" rx="15" transform="translate(1244 1146)" fill="#f8e9a1"/>
    <g id="Mask_Group_2" data-name="Mask Group 2" clip-path="url(#clip-path-2)">
      <g id="_Human_Standing" data-name="ðŸ˜Human/Standing" transform="translate(1142 1135)" clip-path="url(#clip-path-3)">
        <g id="Head_Front" data-name="Head/Front" clip-path="url(#clip-path-4)">
          <g id="Head" transform="translate(123 38)">
            <path id="Head-2" data-name="Head" d="M0,73,8.262,34.49C3.655,29.081.536,22.452,1.057,15.026c1.5-21.4,31.292-16.692,37.086-5.891s5.107,38.2-2.382,40.129c-2.987.77-9.349-1.116-15.825-5.019L24,73Z" fill="#b28b67"/>
          </g>
          <path id="hair" d="M147.464,34.685c-3.163-.519-11.68-.875-13.251-.875-1,0-2.091.229-2.686-.692-.487-.755-.308-2.031-.454-2.907-.169-1.017-.408-2.022-.651-3.023a30.741,30.741,0,0,0-3.192-8.109,24.924,24.924,0,0,0-11.814-10.7A37.937,37.937,0,0,0,97.48,5.916c-6.437.522-12.265,2.647-18.343,4.647a38.442,38.442,0,0,1-17.916,1.725c-6.1-.938-10.715-4.246-15.863-7.385C40.089,1.688,34.066-.414,27.835.069,22.02.52,16.659,2.922,11.85,6.129c-4.5,3-8.212,6.612-10.308,11.695C-.713,23.291-.711,29.292,3,34.123c5.375,7,15.352,8.814,23.654,8.634A45.193,45.193,0,0,0,40.7,40.183c6.046-2.126,11.27-5.731,16.926-8.655A44.044,44.044,0,0,1,65.9,28.217c2.791-.788,5.539-1.15,8.066.536A38.091,38.091,0,0,0,82.092,33.4a26.206,26.206,0,0,0,9.166,1.646c6.081-.047,12.075-1.942,17.981-3.211,4.816-1.035,9.969-2.066,14.879-1.071,2.049.415,5.041,1.272,5.781,3.4-12.454,2.257-17.346,17.66-13.835,28.967,1.895,6.1,13.286,13.237,17.715,10.029,2.806-2.033,1.1-4.7,0-6.463-2.111-3.373-2.834-7.707,1.073-10.055,3.37-2.026,6.913,2.785,6.98,2.779.926-.073,8.929-4.6,14.443-11.2,5.439.322,6.265-3.264,4.966-6.2S151.834,35.4,147.464,34.685Z" transform="translate(0 0)" fill="#191847"/>
        </g>
        <g id="Bottom_Skinny_Jeans_1" data-name="Bottom/Skinny Jeans 1" transform="translate(12 166.213)" clip-path="url(#clip-path-5)">
          <path id="Leg" d="M104.05,0C84.926,15.593,92.2,152.3,90.925,154.024,90.074,155.171,0,173.551,0,173.551l2.592,10.581s105.363-5.229,111.5-13.05c8.792-11.2,21.733-125.242,21.733-125.242Z" transform="matrix(0.574, -0.819, 0.819, 0.574, 31.963, 113.02)" fill="#b28b67"/>
          <path id="Pant" d="M0,169.4l4.565,17.041c52.36,6.012,86.878-1.43,99.027-12.987s21.789-124.9,21.789-124.9L91.386,0C45.861,34.346,73,146.78,71.834,149.353S43.057,153.96,0,169.4Z" transform="matrix(0.574, -0.819, 0.819, 0.574, 38.038, 102.707)" fill="#2f3676"/>
          <g id="Right_Show" data-name="Right Show" transform="translate(170.891 204.349) rotate(20)" clip-path="url(#clip-path-6)">
            <path id="shoe" d="M4.474,5.033A2,2,0,0,0,1.908,6.381L0,13.106A64.242,64.242,0,0,0,.9,21H57.3s2.2-7.268-2.538-7.848-7.87-1.047-7.87-1.047L20.68.419a1,1,0,0,0-1.332.532L17.663,5.039s-4.385,2.046-7.127,2.046Z" transform="translate(0 -0.332)" fill="#e4e4e4"/>
          </g>
          <path id="Leg-2" data-name="Leg" d="M102.6,0,50.858,124.227,0,229.25H12L143.278,0Z" transform="translate(2.396 27.787)" fill="#997659"/>
          <g id="Left_Shot" data-name="Left Shot" transform="translate(0 246.119)" clip-path="url(#clip-path-6)">
            <path id="shoe-2" data-name="shoe" d="M4.474,5.033A2,2,0,0,0,1.908,6.381L0,13.106A64.242,64.242,0,0,0,.9,21H57.3s2.2-7.268-2.538-7.848-7.87-1.047-7.87-1.047L20.68.419a1,1,0,0,0-1.332.532L17.663,5.039s-4.385,2.046-7.127,2.046Z" transform="translate(0 -0.332)" fill="#e4e4e4"/>
          </g>
          <path id="Pant-2" data-name="Pant" d="M0,207.433l26.662,5C47.277,182.125,133.552,57.852,143.011,0H83.656C52.066,41.821,19.65,176.624,0,207.433Z" transform="translate(6.989 27.787)" fill="#5c63ab"/>
        </g>
        <g id="Body_Long_Sleeve_1" data-name="Body/Long Sleeve 1" transform="translate(11 89)" clip-path="url(#clip-path-8)">
          <path id="Skin" d="M31.789,116.267c-1.363-2.293-2.913-4.586-7.622-3.416-8.4,2.087-15.528,7.442-23.363.22-.963-.887-1.669-3.663,1.616-5.087C10.6,104.437,22.692,97.8,24.652,95.218Q28.663,89.944,49.508,35L70,39.065Q39.088,96.674,36.845,100.13c-3.365,5.185-.225,14.687.934,19.691a6.313,6.313,0,0,1-1.427.178C33.886,120,32.9,118.134,31.789,116.267ZM196,30.617,232.234,14.7A85.87,85.87,0,0,1,250.623.282c1.768-.563,4.787-.733,1.565,3.973s-6.4,9.8-5.112,11.45,5.017-.171,6.49,2.511q1.474,2.682-18.859,6.417L207.57,45.439Z" transform="translate(0 47)" fill="#b28b67"/>
          <path id="Coat_Back" data-name="Coat Back" d="M0,2.231,8.485,0C28.84,16.559,40.322,59.616,53.332,64.31c12.3,4.438,28.6-2.324,47.89-11.217l7.293,13.1c-16.386,21.165-53.5,41.081-69.953,33C12.253,86.281,1.767,32.855,0,2.231Z" transform="matrix(0.996, 0.087, -0.087, 0.996, 125.889, 3.109)" fill="#db2721"/>
          <path id="Shirt" d="M0,114H76.511c3.5,0,2.837-5.048,2.332-7.6C73.011,77,50.241,45.312,50.241,3.461L28.172,0C9.917,29.358,3.6,65.5,0,114Z" transform="translate(88)" fill="#dde3e9"/>
          <path id="Coat_Front" data-name="Coat Front" d="M0,141.859Q15.5,45.756,89.748,0h8.738s29.719,101.306,16.386,135H46c1.09-16.437,4.583-33.819,9.369-50.767q-23.4,42.2-39.332,60.767Z" transform="translate(25)" fill="#ff4133"/>
        </g>
      </g>
      <g id="A_Human_Standing" data-name="A Human/Standing" transform="translate(1187.58 1227)">
        <g id="Head_Front-2" data-name="Head/Front" transform="translate(162.813)" clip-path="url(#clip-path-9)">
          <g id="Head-3" data-name="Head" transform="translate(2 2)">
            <path id="Head-4" data-name="Head" d="M0,73,8.262,34.49C3.655,29.081.536,22.452,1.057,15.025c1.5-21.4,31.292-16.692,37.086-5.891s5.107,38.2-2.382,40.129c-2.987.77-9.349-1.116-15.825-5.019L24,73Z" transform="translate(0 0)" fill="#b28b67"/>
          </g>
          <path id="Combined_Shape" data-name="Combined Shape" d="M10,38h0a5.9,5.9,0,0,1-3.386-2.069,20.9,20.9,0,0,1-3.235-4.787A30.555,30.555,0,0,1,0,18,16.644,16.644,0,0,1,5.631,5.38C9.6,1.86,15.256,0,22,0a33.952,33.952,0,0,1,8.206.9A17.651,17.651,0,0,1,35.731,3.24,8.8,8.8,0,0,1,40,10c-4.923,1.353-13.451,2.011-26.07,2.011-.945,0-1.931,0-2.929-.011v1l12,1,2,6c-.152-.011-.31-.018-.47-.018a6.085,6.085,0,0,0-3.856,1.4,13.111,13.111,0,0,0-2.945,3.483A4.809,4.809,0,0,0,15,24a4.916,4.916,0,0,0-3.536,1.548A5.039,5.039,0,0,0,10,29a5.962,5.962,0,0,0,3.027,5.547C11.915,36.721,10.981,37.785,10,38Z" transform="translate(0 0)" fill="#191847"/>
        </g>
        <g id="Bottom_Skinny_Jeans_1-2" data-name="Bottom/Skinny Jeans 1" transform="translate(0 159)" clip-path="url(#clip-path-10)">
          <g id="Seat" transform="translate(0 27)" clip-path="url(#clip-path-11)">
            <ellipse id="Ballsy_Ball" data-name="Ballsy Ball" cx="77" cy="73.5" rx="77" ry="73.5" fill="#c5cfd6"/>
          </g>
          <path id="Skin-2" data-name="Skin" d="M126.572,64.414c-6.368-22.307-11.213-41.937-12.437-49.268-2.92-17.48,22.461-18.5,25.816-9.811,5.078,13.149,13.943,56.351,24.594,121.606l-12.175,3.552C139.559,102.136,130.292,77.442,126.572,64.414ZM3.75,41.5c11.756-4.647,52.924-19.189,72.779-23.3,5.706-1.183,11.236-2.281,16.435-3.273,15.454-2.95,23.46,24.929,8.576,27.071C64.473,47.328,11.924,52.837,7.428,53.456a5.731,5.731,0,0,1-.778.053C.749,53.51-3.331,44.3,3.75,41.5Z" transform="translate(70.138 32.166)" fill="#b28b67"/>
          <path id="Leg_Back" data-name="Leg Back" d="M63.76,42.729a13,13,0,0,1-.172-3.313L0,7.047V0H7.562s92.277,23.513,94.307,30.137c.014.047.027.093.038.14q.047.062.093.125c12.191,16.767,19.493,98.624,21.89,104.753l-23.362,3.486C91.591,105.5,63,82.418,63.76,42.729Z" transform="translate(109)" fill="#1f28cf"/>
          <path id="Leg_Front" data-name="Leg Front" d="M31.077,65.228l19.206-6.588c-5.817-1.164-11.176-2.2-15.76-3.008C4.909,50.438-3.726,34.586,1.38,0H55.942c8.913,2.561,55.232,21.985,79.265,32.316,15.906,6.838,10.892,31.488,1.884,37.9a.879.879,0,0,1-.5.781C103.268,84.811,74.732,84.14,56,83.47c-8.509-.3-15-.609-19,.443Z" transform="translate(64)" fill="#2b44ff"/>
          <g id="Right_Shoe" data-name="Right Shoe" transform="matrix(0.438, 0.899, -0.899, 0.438, 82.628, 66.525)" clip-path="url(#clip-path-6)">
            <path id="shoe-3" data-name="shoe" d="M4.474,5.033A2,2,0,0,0,1.908,6.381L0,13.106A64.242,64.242,0,0,0,.9,21H57.3s2.2-7.268-2.538-7.848-7.87-1.047-7.87-1.047L20.68.419a1,1,0,0,0-1.332.532L17.663,5.039s-4.385,2.046-7.127,2.046Z" transform="translate(0 -0.332)" fill="#e4e4e4"/>
          </g>
          <g id="Right_Shoe-2" data-name="Right Shoe" transform="translate(215 151.332)" clip-path="url(#clip-path-6)">
            <path id="shoe-4" data-name="shoe" d="M4.474,5.033A2,2,0,0,0,1.908,6.381L0,13.106A64.242,64.242,0,0,0,.9,21H57.3s2.2-7.268-2.538-7.848-7.87-1.047-7.87-1.047L20.68.419a1,1,0,0,0-1.332.532L17.663,5.039s-4.385,2.046-7.127,2.046Z" transform="translate(0 -0.332)" fill="#e4e4e4"/>
          </g>
        </g>
        <g id="Body_Long_Sleeve_1-2" data-name="Body/Long Sleeve 1" transform="translate(47.032 54)" clip-path="url(#clip-path-14)">
          <path id="Skin-3" data-name="Skin" d="M31.475,82.139c-1.239-2.355-2.673-4.711-7.423-3.792-8.5,1.645-15.9,6.623-23.35-1-.916-.938-1.475-3.748,1.88-5,8.36-3.115,20.784-9.117,22.877-11.591C29.74,55.694,57.287,0,57.287,0L74.632,4.409S39.8,62.964,37.381,66.3c-3.632,5-.994,14.663-.1,19.724a6.659,6.659,0,0,1-1.167.111C33.438,86.135,32.526,84.136,31.475,82.139Zm191.477-30.17-30.6-15.27L200.6,19.8l30.187,25.592A85.864,85.864,0,0,1,251.815,55.6c1.28,1.342,2.757,3.982-2.885,3.149s-11.614-1.455-12.533.425,2.354,4.434.589,6.934a.74.74,0,0,1-.64.327Q233.619,66.433,222.951,51.969Z" transform="matrix(0.998, -0.07, 0.07, 0.998, 0, 79.371)" fill="#b28b67"/>
          <path id="Back_Arm" data-name="Back Arm" d="M3.685,57.08C-1.183,47.725.464,15.947,0,4.386L10.695,0C25.6,30.816,45.781,60.382,75.751,85.637a34.285,34.285,0,0,1,13.355,2,4.5,4.5,0,0,1,.048,8.512q1.373,1,2.772,1.994l-8.047,16.428C50.016,97.684,18.188,84.955,3.685,57.08Z" transform="translate(133.177 2.041)" fill="#69a1ac"/>
          <path id="Shirt-2" data-name="Shirt" d="M0,112.207s47.157,5.181,74.236,0c2.237-.428,2.138-10.069,1.1-12.7C59.185,58.5,48.56,28.481,48.56,0,44.115,2.322,33,.7,33,.7,13.086,30.047,3.933,63.724,0,112.207Z" transform="translate(95.608 1.703)" fill="#191847"/>
          <path id="Coat_Front-2" data-name="Coat Front" d="M60.78,118.758A4.5,4.5,0,0,1,59.43,114.7l.521-2.955a4.5,4.5,0,0,1,3.9-3.688q.5-2.249.864-4.47c1.892-11.709-1.017-23.2-1.258-34.505C50.063,81.01,33.85,101.813,20.17,137.871L1.283,132.314q1.083-4.022,2.268-7.917c-2.186-1.2-4.763-6.926-2.922-7.88a22.083,22.083,0,0,1,6.186-2.11C34.6,34.984,91.6,0,91.6,0h11.373c-3.349,44.281,42.9,140.955,26.842,223.518-12.57,2.807-27.418.727-43.491-1.354C64.44,219.333,40.285,216.5,16.505,226,18.04,192.75,48.785,153.691,60.78,118.758Z" transform="translate(28.986)" fill="#89c5cc"/>
          <path id="Shade_Lapel" data-name="Shade Lapel" d="M9.222,0,4.063,15.865,14.452,27.759,5.063,37.106,27.779,76,0,37.183l9.222-9.424L0,17.248Z" transform="translate(115.492 1)" fill="rgba(0,0,0,0.1)"/>
          <path id="Buttons" d="M6,50a4,4,0,1,1,4,4A4,4,0,0,1,6,50ZM5,27a4,4,0,1,1,4,4A4,4,0,0,1,5,27ZM0,4A4,4,0,1,1,4,8,4,4,0,0,1,0,4Z" transform="translate(132.608 84)" fill="rgba(0,0,0,0.4)"/>
        </g>
      </g>
    </g>
  </g>
</svg>
