<svg id="Group_350" data-name="Group 350" xmlns="http://www.w3.org/2000/svg" width="933" height="615" viewBox="0 0 933 615">
  <rect id="Rectangle_7" data-name="Rectangle 7" width="216" height="615" fill="#d8dde5"/>
  <circle id="Ellipse_1" data-name="Ellipse 1" cx="24.5" cy="24.5" r="24.5" transform="translate(13 18)" fill="#e7ecf2"/>
  <rect id="Rectangle_10" data-name="Rectangle 10" width="152" height="25" rx="5" transform="translate(25 107)" fill="#e7ecf2"/>
  <rect id="Rectangle_11" data-name="Rectangle 11" width="152" height="25" rx="5" transform="translate(25 172)" fill="#e7ecf2"/>
  <rect id="Rectangle_14" data-name="Rectangle 14" width="105" height="25" rx="5" transform="translate(25 485)" fill="#e7ecf2"/>
  <rect id="Rectangle_12" data-name="Rectangle 12" width="152" height="25" rx="5" transform="translate(25 237)" fill="#e7ecf2"/>
  <rect id="Rectangle_13" data-name="Rectangle 13" width="105" height="25" rx="5" transform="translate(25 550)" fill="#e7ecf2"/>
  <rect id="Rectangle_24" data-name="Rectangle 24" width="256" height="39" rx="5" transform="translate(313 23)" fill="#d8dde5"/>
  <rect id="Rectangle_40" data-name="Rectangle 40" width="380" height="31" rx="5" transform="translate(236 560)" fill="#d8dde5"/>
  <circle id="Ellipse_7" data-name="Ellipse 7" cx="24.5" cy="24.5" r="24.5" transform="translate(236 115)" fill="#a8d0e6"/>
  <circle id="Ellipse_131" data-name="Ellipse 131" cx="24.5" cy="24.5" r="24.5" transform="translate(236 335)" fill="#a8d0e6"/>
  <rect id="Rectangle_28" data-name="Rectangle 28" width="130" height="15" rx="5" transform="translate(298 120)" fill="#e7ecf2"/>
  <rect id="Rectangle_804" data-name="Rectangle 804" width="130" height="15" rx="5" transform="translate(298 340)" fill="#e7ecf2"/>
  <rect id="Rectangle_30" data-name="Rectangle 30" width="201" height="15" rx="5" transform="translate(298 144)" fill="#e7ecf2"/>
  <rect id="Rectangle_805" data-name="Rectangle 805" width="201" height="15" rx="5" transform="translate(298 364)" fill="#e7ecf2"/>
  <rect id="Rectangle_29" data-name="Rectangle 29" width="84" height="15" rx="5" transform="translate(436 124)" fill="#e7ecf2"/>
  <rect id="Rectangle_806" data-name="Rectangle 806" width="84" height="15" rx="5" transform="translate(436 344)" fill="#e7ecf2"/>
  <rect id="Rectangle_34" data-name="Rectangle 34" width="183" height="10" rx="5" transform="translate(358 210)" fill="#e7ecf2"/>
  <rect id="Rectangle_802" data-name="Rectangle 802" width="183" height="10" rx="5" transform="translate(358 430)" fill="#e7ecf2"/>
  <rect id="Rectangle_799" data-name="Rectangle 799" width="183" height="10" rx="5" transform="translate(358 272)" fill="#e7ecf2"/>
  <rect id="Rectangle_800" data-name="Rectangle 800" width="183" height="10" rx="5" transform="translate(358 492)" fill="#e7ecf2"/>
  <circle id="Ellipse_10" data-name="Ellipse 10" cx="17.5" cy="17.5" r="17.5" transform="translate(314 192)" fill="#e77470"/>
  <circle id="Ellipse_130" data-name="Ellipse 130" cx="17.5" cy="17.5" r="17.5" transform="translate(314 412)" fill="#e77470"/>
  <circle id="Ellipse_128" data-name="Ellipse 128" cx="17.5" cy="17.5" r="17.5" transform="translate(314 254)" fill="#e77470"/>
  <circle id="Ellipse_129" data-name="Ellipse 129" cx="17.5" cy="17.5" r="17.5" transform="translate(314 474)" fill="#e77470"/>
  <rect id="Rectangle_35" data-name="Rectangle 35" width="45" height="10" rx="5" transform="translate(358 195)" fill="#e7ecf2"/>
  <rect id="Rectangle_803" data-name="Rectangle 803" width="45" height="10" rx="5" transform="translate(358 415)" fill="#e7ecf2"/>
  <rect id="Rectangle_797" data-name="Rectangle 797" width="45" height="10" rx="5" transform="translate(358 257)" fill="#e7ecf2"/>
  <rect id="Rectangle_801" data-name="Rectangle 801" width="45" height="10" rx="5" transform="translate(358 477)" fill="#e7ecf2"/>
  <rect id="Rectangle_36" data-name="Rectangle 36" width="84" height="10" rx="5" transform="translate(420 195)" fill="#e7ecf2"/>
  <rect id="Rectangle_807" data-name="Rectangle 807" width="84" height="10" rx="5" transform="translate(420 415)" fill="#e7ecf2"/>
  <rect id="Rectangle_798" data-name="Rectangle 798" width="84" height="10" rx="5" transform="translate(420 257)" fill="#e7ecf2"/>
  <rect id="Rectangle_808" data-name="Rectangle 808" width="84" height="10" rx="5" transform="translate(420 477)" fill="#e7ecf2"/>
  <rect id="Rectangle_8" data-name="Rectangle 8" width="272" height="615" transform="translate(661)" fill="#f6f8fb"/>
  <circle id="Ellipse_2" data-name="Ellipse 2" cx="24.5" cy="24.5" r="24.5" transform="translate(689 95)" fill="#e7ecf2"/>
  <circle id="Ellipse_3" data-name="Ellipse 3" cx="24.5" cy="24.5" r="24.5" transform="translate(689 177)" fill="#e77470"/>
  <circle id="Ellipse_4" data-name="Ellipse 4" cx="24.5" cy="24.5" r="24.5" transform="translate(689 259)" fill="#e7ecf2"/>
  <circle id="Ellipse_5" data-name="Ellipse 5" cx="24.5" cy="24.5" r="24.5" transform="translate(689 432)" fill="#a8d0e6"/>
  <circle id="Ellipse_6" data-name="Ellipse 6" cx="24.5" cy="24.5" r="24.5" transform="translate(689 514)" fill="#f8e9a1"/>
  <rect id="Rectangle_15" data-name="Rectangle 15" width="213" height="39" rx="5" transform="translate(689 23)" fill="#d8dde5"/>
  <rect id="Rectangle_18" data-name="Rectangle 18" width="125" height="25" rx="5" transform="translate(752 107)" fill="#e7ecf2"/>
  <rect id="Rectangle_19" data-name="Rectangle 19" width="93" height="25" rx="5" transform="translate(752 185)" fill="#e7ecf2"/>
  <rect id="Rectangle_20" data-name="Rectangle 20" width="72" height="25" rx="5" transform="translate(751 271)" fill="#e7ecf2"/>
  <rect id="Rectangle_21" data-name="Rectangle 21" width="143" height="25" rx="5" transform="translate(751 444)" fill="#e7ecf2"/>
  <rect id="Rectangle_22" data-name="Rectangle 22" width="93" height="25" rx="5" transform="translate(752 530)" fill="#e7ecf2"/>
  <rect id="Rectangle_17" data-name="Rectangle 17" width="213" height="39" rx="5" transform="translate(689 360)" fill="#d8dde5"/>
</svg>
